<svg width="33" height="32" viewBox="0 0 33 32" fill="none" xmlns="http://www.w3.org/2000/svg">
<g clip-path="url(#clip0_3533_10082)">
<path d="M16.5 32C25.3366 32 32.5 24.8366 32.5 16C32.5 7.16344 25.3366 0 16.5 0C7.66344 0 0.5 7.16344 0.5 16C0.5 24.8366 7.66344 32 16.5 32Z" fill="#F7931A"/>
<path d="M23.532 14.02C23.846 11.924 22.249 10.797 20.067 10.045L20.775 7.205L19.047 6.775L18.357 9.54C17.903 9.426 17.437 9.32 16.972 9.214L17.667 6.431L15.939 6L15.231 8.839C14.855 8.753 14.485 8.669 14.127 8.579L14.129 8.57L11.745 7.975L11.285 9.821C11.285 9.821 12.568 10.115 12.541 10.133C13.241 10.308 13.367 10.771 13.346 11.139L12.54 14.374C12.588 14.386 12.65 14.404 12.72 14.431L12.537 14.386L11.407 18.918C11.321 19.13 11.104 19.449 10.614 19.328C10.632 19.353 9.358 19.015 9.358 19.015L8.5 20.993L10.75 21.554C11.168 21.659 11.578 21.769 11.981 21.872L11.266 24.744L12.993 25.174L13.701 22.334C14.173 22.461 14.631 22.579 15.079 22.691L14.373 25.519L16.101 25.949L16.816 23.083C19.764 23.641 21.98 23.416 22.913 20.75C23.665 18.604 22.876 17.365 21.325 16.558C22.455 16.298 23.305 15.555 23.532 14.02ZM19.582 19.558C19.049 21.705 15.434 20.544 14.262 20.253L15.212 16.448C16.384 16.741 20.141 17.32 19.582 19.558ZM20.117 13.989C19.63 15.942 16.622 14.949 15.647 14.706L16.507 11.256C17.482 11.499 20.625 11.952 20.117 13.989Z" fill="white"/>
</g>
<defs>
<clipPath id="clip0_3533_10082">
<rect width="32" height="32" fill="white" transform="translate(0.5)"/>
</clipPath>
</defs>
</svg>
