<svg width="112" height="35" viewBox="0 0 112 35" fill="none" xmlns="http://www.w3.org/2000/svg">
<g clip-path="url(#clip0_2311_12610)">
<path d="M10.768 34.9431C7.60094 34.9431 4.98527 33.897 2.9939 31.8319C1.00708 29.7759 0 26.9894 0 23.5536V22.8412C0 20.5642 0.446578 18.4991 1.33062 16.7046C2.21466 14.901 3.47237 13.4717 5.0673 12.4482C6.66222 11.4247 8.41663 10.9061 10.285 10.9061C13.3336 10.9061 15.735 11.9161 17.4348 13.9136C19.1208 15.893 19.973 18.7561 19.973 22.4219V24.2976H4.46123C4.56148 26.3356 5.19945 28.0084 6.36146 29.2709C7.56449 30.583 9.12296 31.2503 10.9822 31.2503C12.3128 31.2503 13.4475 30.9798 14.3634 30.4477C15.2885 29.9112 16.1133 29.1852 16.8059 28.2925L16.97 28.085L19.7679 30.2403L19.6358 30.4432C17.6717 33.4281 14.6915 34.9431 10.7726 34.9431H10.768ZM15.5209 20.5867V20.5552C15.4115 18.6705 14.892 17.1825 13.9761 16.15C13.0601 15.1174 11.8526 14.617 10.2804 14.617C8.70828 14.617 7.50981 15.1625 6.49361 16.2402C5.51843 17.2772 4.88502 18.7381 4.6116 20.5822H15.5163L15.5209 20.5867Z" fill="#0747A6"/>
<path d="M10.7679 34.6815C7.66004 34.6815 5.13551 33.6715 3.18515 31.6561C1.23478 29.6406 0.26416 26.9352 0.26416 23.5536V22.8412C0.26416 20.5912 0.697068 18.5848 1.56744 16.8173C2.43781 15.0498 3.64995 13.6701 5.20842 12.6691C6.76689 11.6726 8.4575 11.1721 10.2803 11.1721C13.2605 11.1721 15.5754 12.1415 17.225 14.0849C18.8746 16.0282 19.704 18.8057 19.704 22.4218V24.036H4.18311C4.2378 26.2724 4.89855 28.076 6.16082 29.4512C7.42308 30.8264 9.03168 31.5163 10.9775 31.5163C12.3628 31.5163 13.5339 31.2367 14.4909 30.6776C15.4524 30.1185 16.2908 29.3791 17.0108 28.4547L19.4032 30.2989C17.4848 33.2207 14.6048 34.677 10.7633 34.677L10.7679 34.6815ZM10.2803 14.3599C8.69902 14.3599 7.37296 14.928 6.29752 16.0688C5.22665 17.2095 4.56134 18.8012 4.30615 20.8572H15.7805V20.5642C15.6666 18.5938 15.1288 17.0698 14.1719 15.9876C13.2104 14.9055 11.9116 14.3644 10.2757 14.3644L10.2803 14.3599Z" fill="white"/>
<path d="M30.9278 34.9431C29.105 34.9431 27.7015 34.384 26.7627 33.2793C25.8377 32.1882 25.3683 30.6281 25.3683 28.6487V14.8559H21.1987V11.3345H25.3683V5.83813H29.8159V11.3255H34.0948V14.8469H29.8159V28.6577C29.8159 29.5009 29.989 30.1321 30.3262 30.5334C30.6543 30.9212 31.2376 31.1196 32.0715 31.1196C32.5044 31.1196 33.1105 31.0384 33.8806 30.8716L34.2042 30.8039V34.4561L34.0082 34.5102C32.9601 34.7943 31.9257 34.9341 30.9323 34.9341L30.9278 34.9431Z" fill="#0747A6"/>
<path d="M29.5514 6.10413V11.5915H33.8304V14.5854H29.5514V28.6622C29.5514 29.573 29.7428 30.2538 30.121 30.7092C30.5038 31.1646 31.1509 31.3901 32.0714 31.3901C32.5225 31.3901 33.1423 31.3044 33.9352 31.1376V34.2622C32.9053 34.5418 31.9028 34.677 30.9276 34.677C29.1778 34.677 27.8563 34.154 26.9677 33.1034C26.0791 32.0574 25.6325 30.5694 25.6325 28.6396V14.5809H21.4629V11.587H25.6325V6.10413H29.5514V6.10413Z" fill="white"/>
<path d="M52.2361 34.5242V19.2616C52.2224 17.706 51.867 16.5472 51.1743 15.8168C50.4908 15.0954 49.388 14.7256 47.907 14.7256C46.6994 14.7256 45.624 15.0458 44.7172 15.6815C43.8149 16.3128 43.0994 17.1469 42.5845 18.1659V34.5197H38.137V1.81665H42.5845V13.6345C44.3025 11.8264 46.4898 10.9066 49.0964 10.9066C54.0907 10.9066 56.6472 13.7247 56.6882 19.2751V34.5197H52.2406L52.2361 34.5242Z" fill="#0747A6"/>
<path d="M42.3202 14.3378C44.0564 12.2277 46.3167 11.1726 49.0964 11.1726C53.9358 11.1726 56.3783 13.8734 56.4239 19.2796V34.2582H52.505V19.2616C52.4913 17.6293 52.1131 16.421 51.3703 15.6364C50.6275 14.8564 49.4746 14.4641 47.907 14.4641C46.6356 14.4641 45.5192 14.7977 44.5622 15.4696C43.6007 16.1414 42.8534 17.0206 42.3157 18.1073V34.2627H38.3967V2.08264H42.3157V14.3378H42.3202Z" fill="white"/>
<path d="M103.337 0L93.9728 22.2063L88.2037 8.61201L85.5015 14.5638L93.9773 34.5247L102.358 14.8974L107.019 32.6445H112L103.337 0Z" fill="#0065FF"/>
<path d="M81.3868 2.27673L72.282 22.4496L63.2457 2.27673H57.9004L72.2274 34.3305L86.773 2.27673H81.3868Z" fill="#0065FF"/>
</g>
<defs>
<clipPath id="clip0_2311_12610">
<rect width="112" height="34.944" fill="white"/>
</clipPath>
</defs>
</svg>
