<?xml version="1.0" encoding="UTF-8"?>
<svg width="23px" height="23px" viewBox="0 0 23 23" version="1.1" xmlns="http://www.w3.org/2000/svg" xmlns:xlink="http://www.w3.org/1999/xlink">
    <title>Group 22</title>
    <g id="mobile_new" stroke="none" stroke-width="1" fill="none" fill-rule="evenodd">
        <g id="address-tx-history" transform="translate(-359.000000, -682.000000)" fill="#3d55a5" fill-rule="nonzero">
            <g id="Group-11" transform="translate(9.000000, 519.000000)">
                <g id="Group-22" transform="translate(18.000000, 154.000000)">
                    <g id="Group-12" transform="translate(332.000000, 9.000000)">
                        <g id="growth" transform="translate(11.000000, 11.500000) scale(-1, 1) translate(-11.000000, -11.500000) translate(4.000000, 3.000000)">
                            <path d="M2.90279889,11 L2.07680998,11 C0.931719036,11 0,11.7788408 0,12.7360431 L0,16.5279753 C0,16.7886952 0.252781737,17 0.564678204,17 L3,17 C2.93735603,16.8522464 2.90279889,16.6934297 2.90279889,16.5279753 L2.90279889,11 Z" id="Path"></path>
                            <path d="M13.9035227,5.0027771 L10.3948227,0.201553328 C10.3020541,0.0748367227 10.1556717,0 9.99994842,0 C9.84422512,0 9.69771474,0.0748367227 9.60507411,0.201553328 L6.09650212,5.0027771 C5.9860755,5.15387725 5.96905727,5.35530089 6.05248502,5.52326202 C6.13604075,5.69122314 6.30571129,5.79731749 6.49137643,5.79731749 L7.75430878,5.79731749 L7.75430878,16.5019531 C7.75430878,16.7770462 7.97426631,17 8.24566241,17 L11.7542344,17 C12.0256305,17 12.245588,16.7770462 12.245588,16.5019531 L12.245588,5.79731749 L13.5086484,5.79731749 C13.6941855,5.79731749 13.863984,5.69122314 13.9474118,5.52326202 C14.0309675,5.35530089 14.0139493,5.15387725 13.9035227,5.0027771 Z" id="Path"></path>
                            <path d="M6.90294593,8 L6.07680998,8 C4.93171904,8 4,8.821826 4,9.83201682 L4,16.501845 C4,16.7769978 4.25292878,17 4.5646782,17 L7,17 C6.93735603,16.8440671 6.90294593,16.6764587 6.90294593,16.501845 L6.90294593,8 Z" id="Path"></path>
                        </g>
                    </g>
                </g>
            </g>
        </g>
    </g>
</svg>