<svg xmlns="http://www.w3.org/2000/svg" xmlns:xlink="http://www.w3.org/1999/xlink" width="320" height="170" viewBox="0 0 320 170">
    <defs>
        <filter id="a" width="122%" height="143.8%" x="-11%" y="-21.9%" filterUnits="objectBoundingBox">
            <feOffset dy="9" in="SourceAlpha" result="shadowOffsetOuter1"/>
            <feGaussianBlur in="shadowOffsetOuter1" result="shadowBlurOuter1" stdDeviation="4"/>
            <feColorMatrix in="shadowBlurOuter1" result="shadowMatrixOuter1" values="0 0 0 0 0.597496811 0 0 0 0 0.597496811 0 0 0 0 0.597496811 0 0 0 0.0387228261 0"/>
            <feMerge>
                <feMergeNode in="shadowMatrixOuter1"/>
                <feMergeNode in="SourceGraphic"/>
            </feMerge>
        </filter>
        <path id="b" d="M0 0h303.813v153H0z"/>
    </defs>
    <g fill="none" fill-rule="evenodd" filter="url(#a)" transform="translate(7.728)">
        <mask id="c" fill="#fff">
            <use xlink:href="#b"/>
        </mask>
        <use fill="#92CCE1" xlink:href="#b"/>
        <g fill="#FFF" fill-rule="nonzero" mask="url(#c)" opacity=".2">
            <path d="M276.24 111.325c0 1.481 1.268 2.675 2.827 2.675 1.56 0 2.828-1.201 2.828-2.675.003-3.135 1.178-6.181 3.313-8.578 4.747-5.331 8.306-11.11 10.56-17.179a2.562 2.562 0 0 0-.358-2.437A2.88 2.88 0 0 0 293.101 82h-28.07c-.92 0-1.78.421-2.312 1.13a2.562 2.562 0 0 0-.358 2.438c2.259 6.068 5.813 11.848 10.56 17.179 2.137 2.397 3.315 5.446 3.318 8.578zM282.417 123.688c0-1.486-1.267-2.688-2.826-2.688-1.559 0-2.826 1.207-2.826 2.688-.003 3.884-2.44 7.725-6.862 10.841-9.457 6.647-16.536 13.869-21.04 21.46a2.56 2.56 0 0 0 .024 2.676c.503.829 1.435 1.335 2.44 1.335h56.533c1.003 0 1.932-.506 2.44-1.335a2.578 2.578 0 0 0 .021-2.675c-4.501-7.592-11.582-14.814-21.037-21.461-4.427-3.116-6.864-6.957-6.867-10.841z"/>
            <path d="M331.247 165h-1.73c-1.987-21.4-15.166-37.83-25.41-49.5 10.247-11.667 23.42-28.1 25.415-49.5h1.73c3.195 0 5.783-2.463 5.783-5.501 0-3.038-2.588-5.499-5.783-5.499H230.04c-3.195 0-5.783 2.464-5.783 5.499 0 3.038 2.588 5.501 5.783 5.501h1.73c1.99 21.403 15.163 37.836 25.41 49.5-10.245 11.667-23.42 28.097-25.413 49.5h-1.727c-3.195 0-5.783 2.458-5.783 5.496 0 3.04 2.588 5.504 5.783 5.504H331.252c3.195 0 5.783-2.464 5.783-5.504 0-3.038-2.59-5.496-5.788-5.496zm-88.019 0c2.182-19.338 15.449-34.23 25.363-45.357l.53-.595c1.825-2.047 1.825-5.044 0-7.093l-.528-.592C258.682 100.233 245.41 85.34 243.228 66h74.835c-2.182 19.34-15.454 34.232-25.365 45.363l-.525.592c-1.825 2.047-1.825 5.043 0 7.093l.53.595c9.911 11.127 23.178 26.019 25.36 45.357h-74.835z"/>
        </g>
    </g>
</svg>
