<?xml version="1.0" encoding="UTF-8"?>
<svg width="106px" height="113px" viewBox="0 0 106 113" version="1.1" xmlns="http://www.w3.org/2000/svg" xmlns:xlink="http://www.w3.org/1999/xlink">
    <!-- Generator: Sketch 52 (66869) - http://www.bohemiancoding.com/sketch -->
    <title>dashboard</title>
    <desc>Created with Sketch.</desc>
    <defs>
        <filter x="-12.6%" y="-21.9%" width="125.3%" height="143.8%" filterUnits="objectBoundingBox" id="filter-1">
            <feOffset dx="0" dy="9" in="SourceAlpha" result="shadowOffsetOuter1"></feOffset>
            <feGaussianBlur stdDeviation="4" in="shadowOffsetOuter1" result="shadowBlurOuter1"></feGaussianBlur>
            <feColorMatrix values="0 0 0 0 0.597496811   0 0 0 0 0.597496811   0 0 0 0 0.597496811  0 0 0 0.0387228261 0" type="matrix" in="shadowBlurOuter1" result="shadowMatrixOuter1"></feColorMatrix>
            <feMerge>
                <feMergeNode in="shadowMatrixOuter1"></feMergeNode>
                <feMergeNode in="SourceGraphic"></feMergeNode>
            </feMerge>
        </filter>
    </defs>
    <g id="desktop_new" stroke="none" stroke-width="1" fill="none" fill-rule="evenodd" opacity="0.300000012">
        <g id="Home-dropdown-menu-" transform="translate(-1310.000000, -221.000000)" fill="#FFFFFF" fill-rule="nonzero">
            <g id="Group-3-Copy-2" filter="url(#filter-1)" transform="translate(1143.000000, 164.000000)">
                <g id="dashboard">
                    <g transform="translate(175.000000, 57.000000)" id="Shape">
                        <path d="M62,0 C27.7324063,0 0,27.7297422 0,62 C0,96.2675937 27.7297422,124 62,124 C96.2675937,124 124,96.2702578 124,62 C124,27.7324063 96.2702578,0 62,0 Z M62.5,115 C33.4828125,115 10,91.5188889 10,62.5 C10,33.4828125 33.4811111,10 62.5,10 C91.5171875,10 115,33.4811111 115,62.5 C115,91.5171875 91.5188889,115 62.5,115 Z"></path>
                        <path d="M25.0992404,57 L17.9007596,57 C15.1940701,57 13,59.01465 13,61.5 C13,63.98535 15.1940701,66 17.9007596,66 L25.0992404,66 C27.8059299,66 30,63.98535 30,61.5 C30,59.01465 27.8059299,57 25.0992404,57 Z"></path>
                        <path d="M106.099311,57 L98.900689,57 C96.1940385,57 94,59.01465 94,61.5 C94,63.98535 96.1940385,66 98.900689,66 L106.099311,66 C108.805962,66 111,63.98535 111,61.5 C111,59.01465 108.805962,57 106.099311,57 Z"></path>
                        <path d="M86.6224504,19.6146985 C84.3487326,18.349296 81.441578,19.1001489 80.1288304,21.2924284 L76.6376778,27.1234565 C75.3249303,29.3159652 76.1040696,32.119516 78.3775496,33.3851477 C80.6519804,34.6510087 83.5588974,33.8994682 84.8711696,31.7074179 L88.3623222,25.8763898 C89.6750697,23.6838811 88.8959304,20.8803303 86.6224504,19.6146985 Z"></path>
                        <path d="M75.6030261,37.6347142 C73.3108842,36.3280475 70.3799329,37.1036739 69.0567876,39.3662131 L62.2675812,50.9750617 C62.0658267,50.9637076 61.8628741,50.9566113 61.6582442,50.9566113 C55.7812461,50.9566113 51,55.6766016 51,61.4783056 C51,67.2800097 55.7812461,72 61.6582442,72 C67.5352424,72 72.3164885,67.2800097 72.3164885,61.4783056 C72.3164885,59.3494135 71.6707303,57.3676515 70.5653937,55.7097177 L77.3569963,44.0968479 C78.6806208,41.8343087 77.895168,38.9411443 75.6030261,37.6347142 Z"></path>
                        <path d="M47.3622269,27.1235716 L43.871131,21.2926789 C42.5586425,19.0999919 39.6510597,18.3491564 37.3776166,19.614988 C35.1041735,20.8808195 34.3248092,23.684076 35.6377731,25.8765339 L39.128869,31.7074266 C40.4420705,33.9010304 43.3501287,34.6502615 45.6223834,33.3851175 C47.8958265,32.1195152 48.6751908,29.3160295 47.3622269,27.1235716 Z"></path>
                    </g>
                </g>
            </g>
        </g>
    </g>
</svg>