<svg width="551" height="660" viewBox="0 0 551 660" fill="none" xmlns="http://www.w3.org/2000/svg">
<ellipse cx="275.5" cy="330" rx="275.5" ry="330" fill="url(#paint0_linear_5142_17023)"/>
<path d="M148.553 149.245C151.498 148.55 154.449 150.374 155.144 153.318C155.84 156.263 154.017 159.213 151.072 159.908C148.127 160.603 145.176 158.78 144.481 155.835C143.785 152.891 145.609 149.94 148.553 149.245Z" fill="white"/>
<path d="M143.088 114.423C143.135 111.397 145.626 108.983 148.651 109.03C151.676 109.077 154.09 111.568 154.043 114.593C153.996 117.619 151.505 120.033 148.48 119.986C145.455 119.938 143.041 117.448 143.088 114.423Z" fill="white"/>
<path d="M147.864 71.0901C150.811 70.4074 153.754 72.2434 154.438 75.1909C155.121 78.1384 153.285 81.0812 150.337 81.7639C147.39 82.4466 144.447 80.6106 143.763 77.6631C143.08 74.7156 144.916 71.7728 147.864 71.0901Z" fill="white"/>
<path d="M200.595 149.245C203.54 148.55 206.49 150.374 207.186 153.318C207.881 156.263 206.058 159.213 203.114 159.908C200.169 160.603 197.218 158.78 196.522 155.835C195.827 152.891 197.65 149.94 200.595 149.245Z" fill="white"/>
<path d="M197.869 114.423C197.916 111.397 200.407 108.983 203.432 109.03C206.457 109.077 208.871 111.568 208.824 114.593C208.777 117.619 206.286 120.033 203.261 119.986C200.236 119.938 197.822 117.448 197.869 114.423Z" fill="white"/>
<path d="M200.863 71.0901C203.811 70.4074 206.754 72.2434 207.437 75.1909C208.12 78.1384 206.285 81.0812 203.337 81.7639C200.389 82.4466 197.446 80.6106 196.763 77.6631C196.08 74.7156 197.916 71.7728 200.863 71.0901Z" fill="white"/>
<path d="M252.64 149.245C255.585 148.55 258.536 150.374 259.231 153.318C259.927 156.263 258.104 159.213 255.159 159.908C252.214 160.603 249.263 158.78 248.568 155.835C247.872 152.891 249.696 149.94 252.64 149.245Z" fill="white"/>
<path d="M249.914 114.423C249.961 111.397 252.452 108.983 255.477 109.03C258.502 109.077 260.917 111.568 260.869 114.593C260.822 117.619 258.332 120.033 255.306 119.986C252.281 119.938 249.867 117.448 249.914 114.423Z" fill="white"/>
<path d="M252.864 71.0901C255.811 70.4074 258.754 72.2434 259.438 75.1909C260.121 78.1384 258.285 81.0812 255.337 81.7639C252.39 82.4466 249.447 80.6106 248.763 77.6631C248.08 74.7156 249.916 71.7728 252.864 71.0901Z" fill="white"/>
<path d="M304.685 149.245C307.63 148.55 310.581 150.374 311.277 153.318C311.972 156.263 310.149 159.213 307.204 159.908C304.259 160.603 301.308 158.78 300.613 155.835C299.917 152.891 301.741 149.94 304.685 149.245Z" fill="white"/>
<path d="M301.959 114.423C302.006 111.397 304.497 108.983 307.522 109.03C310.548 109.077 312.962 111.568 312.915 114.593C312.867 117.619 310.377 120.033 307.351 119.986C304.326 119.938 301.912 117.448 301.959 114.423Z" fill="white"/>
<path d="M304.864 71.0901C307.811 70.4074 310.754 72.2434 311.438 75.1909C312.121 78.1384 310.285 81.0812 307.337 81.7639C304.39 82.4466 301.447 80.6106 300.763 77.6631C300.08 74.7156 301.916 71.7728 304.864 71.0901Z" fill="white"/>
<path d="M148.553 269.756C151.498 269.061 154.449 270.884 155.144 273.829C155.84 276.774 154.017 279.724 151.072 280.419C148.127 281.114 145.176 279.291 144.481 276.346C143.785 273.402 145.609 270.451 148.553 269.756Z" fill="white"/>
<path d="M143.088 234.948C143.135 231.923 145.626 229.509 148.651 229.556C151.676 229.603 154.09 232.094 154.043 235.119C153.996 238.144 151.505 240.559 148.48 240.511C145.455 240.464 143.041 237.974 143.088 234.948Z" fill="white"/>
<path d="M148.604 190.338C151.551 189.655 154.494 191.491 155.178 194.439C155.861 197.386 154.025 200.329 151.077 201.012C148.13 201.694 145.186 199.858 144.503 196.911C143.82 193.963 145.656 191.021 148.604 190.338Z" fill="white"/>
<path d="M200.595 269.756C203.54 269.061 206.49 270.884 207.186 273.829C207.881 276.774 206.058 279.724 203.114 280.419C200.169 281.114 197.218 279.291 196.522 276.346C195.827 273.402 197.65 270.451 200.595 269.756Z" fill="white"/>
<path d="M197.869 234.948C197.916 231.923 200.407 229.509 203.432 229.556C206.457 229.603 208.871 232.094 208.824 235.119C208.777 238.144 206.286 240.559 203.261 240.511C200.236 240.464 197.822 237.974 197.869 234.948Z" fill="white"/>
<path d="M200.645 190.338C203.593 189.655 206.536 191.491 207.219 194.439C207.902 197.386 206.066 200.329 203.119 201.012C200.171 201.694 197.228 199.858 196.545 196.911C195.862 193.963 197.698 191.021 200.645 190.338Z" fill="white"/>
<path d="M252.64 269.756C255.585 269.061 258.536 270.884 259.231 273.829C259.927 276.774 258.104 279.724 255.159 280.419C252.214 281.114 249.263 279.291 248.568 276.346C247.872 273.402 249.696 270.451 252.64 269.756Z" fill="white"/>
<path d="M249.914 234.948C249.961 231.923 252.452 229.509 255.477 229.556C258.502 229.603 260.917 232.094 260.869 235.119C260.822 238.144 258.332 240.559 255.306 240.511C252.281 240.464 249.867 237.974 249.914 234.948Z" fill="white"/>
<path d="M252.691 190.338C255.638 189.655 258.581 191.491 259.264 194.439C259.948 197.386 258.112 200.329 255.164 201.012C252.217 201.694 249.273 199.858 248.59 196.911C247.907 193.963 249.743 191.021 252.691 190.338Z" fill="white"/>
<path d="M304.685 269.756C307.63 269.061 310.581 270.884 311.277 273.829C311.972 276.774 310.149 279.724 307.204 280.419C304.259 281.114 301.308 279.291 300.613 276.346C299.917 273.402 301.741 270.451 304.685 269.756Z" fill="white"/>
<path d="M301.959 234.948C302.006 231.923 304.497 229.509 307.522 229.556C310.548 229.603 312.962 232.094 312.915 235.119C312.867 238.144 310.377 240.559 307.351 240.511C304.326 240.464 301.912 237.974 301.959 234.948Z" fill="white"/>
<path d="M304.736 190.338C307.683 189.655 310.627 191.491 311.31 194.439C311.993 197.386 310.157 200.329 307.209 201.012C304.262 201.694 301.319 199.858 300.636 196.911C299.952 193.963 301.788 191.021 304.736 190.338Z" fill="white"/>
<path d="M148.553 390.282C151.498 389.587 154.449 391.41 155.144 394.355C155.84 397.299 154.017 400.25 151.072 400.945C148.127 401.64 145.176 399.817 144.481 396.872C143.785 393.928 145.609 390.977 148.553 390.282Z" fill="white"/>
<path d="M143.088 355.474C143.135 352.449 145.626 350.035 148.651 350.082C151.676 350.129 154.09 352.62 154.043 355.645C153.996 358.67 151.505 361.085 148.48 361.037C145.455 360.99 143.041 358.5 143.088 355.474Z" fill="white"/>
<path d="M148.604 310.864C151.551 310.181 154.494 312.017 155.178 314.965C155.861 317.912 154.025 320.855 151.077 321.538C148.13 322.22 145.186 320.384 144.503 317.437C143.82 314.489 145.656 311.547 148.604 310.864Z" fill="white"/>
<path d="M200.595 390.282C203.54 389.587 206.49 391.41 207.186 394.355C207.881 397.299 206.058 400.25 203.114 400.945C200.169 401.64 197.218 399.817 196.522 396.872C195.827 393.928 197.65 390.977 200.595 390.282Z" fill="white"/>
<path d="M197.869 355.474C197.916 352.449 200.407 350.035 203.432 350.082C206.457 350.129 208.871 352.62 208.824 355.645C208.777 358.67 206.286 361.085 203.261 361.037C200.236 360.99 197.822 358.5 197.869 355.474Z" fill="white"/>
<path d="M200.645 310.864C203.593 310.181 206.536 312.017 207.219 314.965C207.902 317.912 206.066 320.855 203.119 321.538C200.171 322.22 197.228 320.384 196.545 317.437C195.862 314.489 197.698 311.547 200.645 310.864Z" fill="white"/>
<path d="M252.64 390.282C255.585 389.587 258.536 391.41 259.231 394.355C259.927 397.299 258.104 400.25 255.159 400.945C252.214 401.64 249.263 399.817 248.568 396.872C247.872 393.928 249.696 390.977 252.64 390.282Z" fill="white"/>
<path d="M249.914 355.474C249.961 352.449 252.452 350.035 255.477 350.082C258.502 350.129 260.917 352.62 260.869 355.645C260.822 358.67 258.332 361.085 255.306 361.037C252.281 360.99 249.867 358.5 249.914 355.474Z" fill="white"/>
<path d="M252.691 310.864C255.638 310.181 258.581 312.017 259.264 314.965C259.948 317.912 258.112 320.855 255.164 321.538C252.217 322.22 249.273 320.384 248.59 317.437C247.907 314.489 249.743 311.547 252.691 310.864Z" fill="white"/>
<path d="M304.685 390.282C307.63 389.587 310.581 391.41 311.277 394.355C311.972 397.299 310.149 400.25 307.204 400.945C304.259 401.64 301.308 399.817 300.613 396.872C299.917 393.928 301.741 390.977 304.685 390.282Z" fill="white"/>
<path d="M301.959 355.474C302.006 352.449 304.497 350.035 307.522 350.082C310.548 350.129 312.962 352.62 312.915 355.645C312.867 358.67 310.377 361.085 307.351 361.037C304.326 360.99 301.912 358.5 301.959 355.474Z" fill="white"/>
<path d="M304.736 310.864C307.683 310.181 310.627 312.017 311.31 314.965C311.993 317.912 310.157 320.855 307.209 321.538C304.262 322.22 301.319 320.384 300.636 317.437C299.952 314.489 301.788 311.547 304.736 310.864Z" fill="white"/>
<path d="M148.813 511.078C151.758 510.383 154.709 512.207 155.404 515.151C156.1 518.096 154.277 521.046 151.332 521.741C148.387 522.436 145.436 520.613 144.741 517.668C144.045 514.724 145.869 511.773 148.813 511.078Z" fill="white"/>
<path d="M144.13 476.351C144.177 473.326 146.668 470.912 149.693 470.959C152.719 471.006 155.133 473.497 155.085 476.522C155.038 479.548 152.548 481.962 149.522 481.915C146.497 481.867 144.083 479.377 144.13 476.351Z" fill="white"/>
<path d="M147.864 431.09C150.811 430.407 153.754 432.243 154.438 435.191C155.121 438.138 153.285 441.081 150.337 441.764C147.39 442.447 144.447 440.611 143.763 437.663C143.08 434.716 144.916 431.773 147.864 431.09Z" fill="white"/>
<path d="M200.813 511.078C203.758 510.383 206.709 512.207 207.404 515.151C208.1 518.096 206.276 521.046 203.332 521.741C200.387 522.436 197.436 520.613 196.741 517.668C196.045 514.724 197.868 511.773 200.813 511.078Z" fill="white"/>
<path d="M197.13 476.351C197.178 473.326 199.668 470.912 202.694 470.959C205.719 471.006 208.133 473.497 208.086 476.522C208.039 479.548 205.548 481.962 202.523 481.915C199.497 481.867 197.083 479.377 197.13 476.351Z" fill="white"/>
<path d="M200.863 431.09C203.811 430.407 206.754 432.243 207.437 435.191C208.12 438.138 206.285 441.081 203.337 441.764C200.389 442.447 197.446 440.611 196.763 437.663C196.08 434.716 197.916 431.773 200.863 431.09Z" fill="white"/>
<path d="M253.813 511.078C256.758 510.383 259.709 512.207 260.404 515.151C261.1 518.096 259.277 521.046 256.332 521.741C253.387 522.436 250.436 520.613 249.741 517.668C249.045 514.724 250.869 511.773 253.813 511.078Z" fill="white"/>
<path d="M249.13 476.351C249.177 473.326 251.668 470.912 254.693 470.959C257.719 471.006 260.133 473.497 260.085 476.522C260.038 479.548 257.548 481.962 254.522 481.915C251.497 481.867 249.083 479.377 249.13 476.351Z" fill="white"/>
<path d="M252.864 431.09C255.811 430.407 258.754 432.243 259.438 435.191C260.121 438.138 258.285 441.081 255.337 441.764C252.39 442.447 249.447 440.611 248.763 437.663C248.08 434.716 249.916 431.773 252.864 431.09Z" fill="white"/>
<path d="M305.813 511.078C308.758 510.383 311.709 512.207 312.404 515.151C313.1 518.096 311.277 521.046 308.332 521.741C305.387 522.436 302.436 520.613 301.741 517.668C301.045 514.724 302.869 511.773 305.813 511.078Z" fill="white"/>
<path d="M301.13 476.351C301.177 473.326 303.668 470.912 306.693 470.959C309.719 471.006 312.133 473.497 312.085 476.522C312.038 479.548 309.548 481.962 306.522 481.915C303.497 481.867 301.083 479.377 301.13 476.351Z" fill="white"/>
<path d="M304.864 431.09C307.811 430.407 310.754 432.243 311.438 435.191C312.121 438.138 310.285 441.081 307.337 441.764C304.39 442.447 301.447 440.611 300.763 437.663C300.08 434.716 301.916 431.773 304.864 431.09Z" fill="white"/>
<defs>
<linearGradient id="paint0_linear_5142_17023" x1="55.3811" y1="4.85729e-06" x2="544.055" y2="608.538" gradientUnits="userSpaceOnUse">
<stop stop-color="#C549FF"/>
<stop offset="1" stop-color="#654BFF"/>
</linearGradient>
</defs>
</svg>
