<svg width="23" height="23" viewBox="0 0 23 23" fill="none" xmlns="http://www.w3.org/2000/svg">
<g clip-path="url(#clip0_4011_11173)">
<path d="M22.6216 11.1486C22.6216 4.99142 17.6302 0 11.473 0C5.31576 0 0.324341 4.99142 0.324341 11.1486C0.324341 16.7132 4.40122 21.3255 9.73101 22.1619V14.3713H6.9003V11.1486H9.73101V8.69246C9.73101 5.89833 11.3955 4.35494 13.942 4.35494C15.1614 4.35494 16.4376 4.57269 16.4376 4.57269V7.3163H15.0318C13.647 7.3163 13.215 8.17575 13.215 9.05828V11.1486H16.307L15.8127 14.3713H13.215V22.1619C18.5448 21.3255 22.6216 16.7132 22.6216 11.1486Z" fill="white"/>
</g>
<defs>
<clipPath id="clip0_4011_11173">
<rect width="22.2973" height="22.2973" fill="white" transform="translate(0.324341)"/>
</clipPath>
</defs>
</svg>
