<svg width="23" height="23" viewBox="0 0 23 23" fill="none" xmlns="http://www.w3.org/2000/svg">
<g clip-path="url(#clip0_4011_11177)">
<path fill-rule="evenodd" clip-rule="evenodd" d="M11.6624 0.46447C9.01577 0.465843 6.45588 1.40324 4.44052 3.10904C2.42516 4.81485 1.08574 7.17782 0.66176 9.77545C0.237778 12.3731 0.756879 15.036 2.12625 17.2879C3.49563 19.5399 5.62597 21.2342 8.13636 22.0677C8.69019 22.1705 8.8988 21.8273 8.8988 21.5354C8.8988 21.2436 8.88772 20.3973 8.88403 19.4722C5.78257 20.1422 5.1272 18.1634 5.1272 18.1634C4.62137 16.8785 3.89031 16.5407 3.89031 16.5407C2.87864 15.8542 3.96601 15.8671 3.96601 15.8671C5.08659 15.946 5.6755 17.0106 5.6755 17.0106C6.66871 18.7049 8.28404 18.2148 8.91911 17.9284C9.0188 17.2107 9.30864 16.7225 9.62802 16.4453C7.15054 16.1663 4.54752 15.2154 4.54752 10.9678C4.53217 9.86623 4.94328 8.80092 5.69581 7.9923C5.58135 7.71329 5.1992 6.58622 5.80472 5.05533C5.80472 5.05533 6.74071 4.75796 8.87112 6.19157C10.6984 5.69469 12.6264 5.69469 14.4537 6.19157C16.5823 4.75796 17.5164 5.05533 17.5164 5.05533C18.1238 6.58255 17.7417 7.70962 17.6272 7.9923C18.3821 8.80105 18.7941 9.86822 18.7773 10.9715C18.7773 15.2283 16.1688 16.1663 13.6876 16.4398C14.0864 16.7849 14.4427 17.4585 14.4427 18.4938C14.4427 19.977 14.4297 21.1701 14.4297 21.5354C14.4297 21.8309 14.631 22.176 15.1959 22.0677C17.7066 21.2341 19.8371 19.5395 21.2065 17.2872C22.5758 15.0348 23.0946 12.3715 22.6702 9.77364C22.2457 7.17577 20.9056 4.81277 18.8896 3.10726C16.8736 1.40175 14.3131 0.464973 11.6661 0.46447H11.6624Z" fill="white"/>
<path d="M7.97182 18.5581C7.97182 18.648 7.86844 18.7251 7.73552 18.727C7.6026 18.7288 7.49368 18.6554 7.49368 18.5654C7.49368 18.4755 7.59706 18.3984 7.72998 18.3965C7.8629 18.3947 7.97182 18.4663 7.97182 18.5581Z" fill="white"/>
<path d="M8.82102 18.4167C8.83763 18.5067 8.74533 18.6003 8.61241 18.6223C8.47949 18.6443 8.36318 18.5911 8.34657 18.503C8.32995 18.4149 8.42595 18.3194 8.55518 18.2956C8.68441 18.2717 8.8044 18.3268 8.82102 18.4167Z" fill="white"/>
<path d="M7.05979 18.4956C7.0321 18.5819 6.90656 18.6204 6.78103 18.5837C6.65549 18.547 6.57242 18.4442 6.59642 18.3561C6.62041 18.268 6.7478 18.2276 6.87518 18.268C7.00256 18.3084 7.08379 18.4057 7.05979 18.4956Z" fill="white"/>
<path d="M6.22355 18.1359C6.16263 18.2038 6.03894 18.1854 5.93741 18.0937C5.83587 18.0019 5.81186 17.8771 5.87279 17.811C5.93371 17.7449 6.0574 17.7633 6.16263 17.8532C6.26785 17.9432 6.28816 18.0698 6.22355 18.1359Z" fill="white"/>
<path d="M5.62726 17.5191C5.55895 17.5668 5.44264 17.5191 5.37803 17.4236C5.36016 17.4065 5.34596 17.386 5.33625 17.3633C5.32654 17.3406 5.32153 17.3161 5.32153 17.2915C5.32153 17.2668 5.32654 17.2424 5.33625 17.2197C5.34596 17.197 5.36016 17.1764 5.37803 17.1593C5.44634 17.1134 5.56265 17.1593 5.62726 17.2529C5.69187 17.3465 5.69372 17.4714 5.62726 17.5191Z" fill="white"/>
<path d="M5.18786 16.8822C5.14963 16.9013 5.10589 16.9067 5.06413 16.8973C5.02237 16.8879 4.98519 16.8644 4.95894 16.8308C4.88695 16.7537 4.87217 16.6472 4.92755 16.5995C4.98294 16.5517 5.08263 16.5738 5.15463 16.6509C5.22663 16.728 5.24324 16.8344 5.18786 16.8822Z" fill="white"/>
<path d="M4.73554 16.381C4.71154 16.4361 4.62293 16.4526 4.55093 16.4141C4.47893 16.3755 4.4254 16.3039 4.45124 16.247C4.47709 16.1901 4.56386 16.1754 4.63585 16.214C4.70785 16.2525 4.76323 16.326 4.73554 16.381Z" fill="white"/>
</g>
<defs>
<clipPath id="clip0_4011_11177">
<rect width="22.2973" height="22.2973" fill="white" transform="translate(0.513519)"/>
</clipPath>
</defs>
</svg>
