<svg width="24" height="23" viewBox="0 0 24 23" fill="none" xmlns="http://www.w3.org/2000/svg">
<g clip-path="url(#clip0_4011_11175)">
<path d="M12.0676 2.00763C15.0464 2.00763 15.3991 2.02069 16.5706 2.07295C17.6593 2.12086 18.2472 2.30376 18.6392 2.45619C19.1574 2.65651 19.5319 2.90039 19.9195 3.28798C20.3115 3.67993 20.551 4.0501 20.7513 4.56833C20.9038 4.96028 21.0867 5.55255 21.1346 6.63693C21.1868 7.81276 21.1999 8.16551 21.1999 11.1399C21.1999 14.1187 21.1868 14.4715 21.1346 15.6429C21.0867 16.7317 20.9038 17.3196 20.7513 17.7115C20.551 18.2298 20.3071 18.6043 19.9195 18.9919C19.5276 19.3838 19.1574 19.6234 18.6392 19.8237C18.2472 19.9761 17.655 20.159 16.5706 20.2069C15.3948 20.2592 15.042 20.2723 12.0676 20.2723C9.0888 20.2723 8.73605 20.2592 7.56457 20.2069C6.47583 20.159 5.88792 19.9761 5.49597 19.8237C4.97774 19.6234 4.60321 19.3795 4.21562 18.9919C3.82368 18.6 3.58415 18.2298 3.38383 17.7115C3.2314 17.3196 3.0485 16.7273 3.00059 15.6429C2.94833 14.4671 2.93527 14.1144 2.93527 11.1399C2.93527 8.16116 2.94833 7.80841 3.00059 6.63693C3.0485 5.54819 3.2314 4.96028 3.38383 4.56833C3.58415 4.0501 3.82803 3.67557 4.21562 3.28798C4.60756 2.89604 4.97774 2.65651 5.49597 2.45619C5.88792 2.30376 6.48019 2.12086 7.56457 2.07295C8.73605 2.02069 9.0888 2.00763 12.0676 2.00763ZM12.0676 0C9.0409 0 8.66201 0.0130648 7.47312 0.0653241C6.28857 0.117583 5.4742 0.309201 4.7687 0.583562C4.03271 0.870988 3.40996 1.24987 2.79155 1.87262C2.1688 2.49103 1.78992 3.11378 1.50249 3.84541C1.22813 4.55527 1.03651 5.36529 0.984254 6.54983C0.931995 7.74308 0.91893 8.12197 0.91893 11.1486C0.91893 14.1753 0.931995 14.5542 0.984254 15.7431C1.03651 16.9277 1.22813 17.742 1.50249 18.4475C1.78992 19.1835 2.1688 19.8063 2.79155 20.4247C3.40996 21.0431 4.03271 21.4263 4.76434 21.7094C5.4742 21.9837 6.28422 22.1754 7.46876 22.2276C8.65766 22.2799 9.03654 22.2929 12.0632 22.2929C15.0899 22.2929 15.4688 22.2799 16.6577 22.2276C17.8422 22.1754 18.6566 21.9837 19.3621 21.7094C20.0937 21.4263 20.7165 21.0431 21.3349 20.4247C21.9533 19.8063 22.3365 19.1835 22.6196 18.4519C22.894 17.742 23.0856 16.932 23.1378 15.7475C23.1901 14.5586 23.2032 14.1797 23.2032 11.153C23.2032 8.12632 23.1901 7.74744 23.1378 6.55854C23.0856 5.374 22.894 4.55962 22.6196 3.85412C22.3452 3.11378 21.9664 2.49103 21.3436 1.87262C20.7252 1.25422 20.1024 0.870988 19.3708 0.587917C18.661 0.313556 17.8509 0.121938 16.6664 0.0696791C15.4731 0.0130648 15.0943 0 12.0676 0Z" fill="white"/>
<path d="M12.0676 5.42184C8.9059 5.42184 6.34084 7.9869 6.34084 11.1486C6.34084 14.3103 8.9059 16.8753 12.0676 16.8753C15.2293 16.8753 17.7943 14.3103 17.7943 11.1486C17.7943 7.9869 15.2293 5.42184 12.0676 5.42184ZM12.0676 14.8634C10.0164 14.8634 8.35282 13.1998 8.35282 11.1486C8.35282 9.09741 10.0164 7.43383 12.0676 7.43383C14.1188 7.43383 15.7823 9.09741 15.7823 11.1486C15.7823 13.1998 14.1188 14.8634 12.0676 14.8634Z" fill="white"/>
<path d="M19.3578 5.19534C19.3578 5.93569 18.7568 6.53231 18.0208 6.53231C17.2804 6.53231 16.6838 5.93133 16.6838 5.19534C16.6838 4.455 17.2848 3.85838 18.0208 3.85838C18.7568 3.85838 19.3578 4.45936 19.3578 5.19534Z" fill="white"/>
</g>
<defs>
<clipPath id="clip0_4011_11175">
<rect width="22.2973" height="22.2973" fill="white" transform="translate(0.91893)"/>
</clipPath>
</defs>
</svg>
