<svg width="23" height="23" viewBox="0 0 23 23" fill="none" xmlns="http://www.w3.org/2000/svg">
<g clip-path="url(#clip0_4011_11176)">
<path d="M20.863 0H1.86238C0.952202 0 0.216217 0.718565 0.216217 1.60697V20.686C0.216217 21.5744 0.952202 22.2973 1.86238 22.2973H20.863C21.7732 22.2973 22.5135 21.5744 22.5135 20.6903V1.60697C22.5135 0.718565 21.7732 0 20.863 0ZM6.83137 19.0006H3.52162V8.35713H6.83137V19.0006ZM5.17649 6.90694C4.11389 6.90694 3.25597 6.04901 3.25597 4.99076C3.25597 3.93251 4.11389 3.07459 5.17649 3.07459C6.23475 3.07459 7.09267 3.93251 7.09267 4.99076C7.09267 6.04466 6.23475 6.90694 5.17649 6.90694ZM19.2168 19.0006H15.9114V13.8269C15.9114 12.5945 15.8896 11.0049 14.1912 11.0049C12.471 11.0049 12.2097 12.3506 12.2097 13.7398V19.0006H8.90868V8.35713H12.0791V9.81168H12.1226C12.5625 8.97553 13.6425 8.09148 15.2495 8.09148C18.5984 8.09148 19.2168 10.2951 19.2168 13.1606V19.0006Z" fill="white"/>
</g>
<defs>
<clipPath id="clip0_4011_11176">
<rect width="22.2973" height="22.2973" fill="white" transform="translate(0.216217)"/>
</clipPath>
</defs>
</svg>
