<svg width="23" height="23" viewBox="0 0 23 23" fill="none" xmlns="http://www.w3.org/2000/svg">
<g clip-path="url(#clip0_4011_11182)">
<path fill-rule="evenodd" clip-rule="evenodd" d="M23 11.1486C23 17.3059 18.0086 22.2973 11.8514 22.2973C5.69415 22.2973 0.702728 17.3059 0.702728 11.1486C0.702728 4.99142 5.69415 0 11.8514 0C18.0086 0 23 4.99142 23 11.1486ZM12.2509 8.23042C11.1665 8.68145 8.99931 9.61496 5.74925 11.031C5.22149 11.2408 4.94503 11.4461 4.91986 11.6469C4.87733 11.9862 5.30221 12.1198 5.88078 12.3017C5.95948 12.3265 6.04103 12.3521 6.12463 12.3793C6.69386 12.5643 7.45958 12.7808 7.85764 12.7894C8.21872 12.7972 8.62173 12.6483 9.06667 12.3428C12.1033 10.293 13.6708 9.25692 13.7692 9.23458C13.8387 9.21882 13.9349 9.19901 14.0001 9.25695C14.0652 9.31489 14.0588 9.42462 14.0519 9.45406C14.0098 9.63349 12.342 11.184 11.4789 11.9864C11.2099 12.2366 11.019 12.414 10.98 12.4546C10.8926 12.5453 10.8035 12.6312 10.7179 12.7137C10.1891 13.2235 9.79251 13.6058 10.7399 14.2301C11.1951 14.5301 11.5594 14.7782 11.9229 15.0257C12.3198 15.296 12.7157 15.5656 13.2279 15.9014C13.3584 15.9869 13.483 16.0758 13.6044 16.1623C14.0663 16.4916 14.4813 16.7875 14.994 16.7403C15.2919 16.7129 15.5996 16.4327 15.7559 15.5973C16.1252 13.6229 16.8512 9.34485 17.019 7.58199C17.0337 7.42754 17.0152 7.22987 17.0003 7.1431C16.9855 7.05633 16.9545 6.9327 16.8417 6.84118C16.7081 6.7328 16.5019 6.70994 16.4097 6.71156C15.9903 6.71895 15.347 6.94265 12.2509 8.23042Z" fill="white"/>
</g>
<defs>
<clipPath id="clip0_4011_11182">
<rect width="22.2973" height="22.2973" fill="white" transform="translate(0.702728)"/>
</clipPath>
</defs>
</svg>
