<svg width="23" height="23" viewBox="0 0 23 23" fill="none" xmlns="http://www.w3.org/2000/svg">
<g clip-path="url(#clip0_4011_11174)">
<path d="M7.63616 20.2069C16.0482 20.2069 20.6505 13.236 20.6505 7.19261C20.6505 6.99663 20.6461 6.79631 20.6374 6.60033C21.5327 5.95288 22.3053 5.15091 22.919 4.23212C22.0851 4.60309 21.1999 4.84537 20.2934 4.95068C21.2478 4.37855 21.9625 3.47975 22.3049 2.4209C21.407 2.95305 20.425 3.32844 19.401 3.53097C18.7111 2.7979 17.7989 2.31252 16.8055 2.14988C15.812 1.98723 14.7927 2.15638 13.905 2.63117C13.0174 3.10596 12.3108 3.85995 11.8947 4.77656C11.4785 5.69317 11.3759 6.72135 11.6026 7.70214C9.78445 7.61089 8.00572 7.13858 6.38178 6.3158C4.75783 5.49303 3.32492 4.33816 2.17594 2.92607C1.59196 3.93291 1.41326 5.12433 1.67616 6.25819C1.93906 7.39205 2.62383 8.38327 3.59129 9.03039C2.86498 9.00733 2.15457 8.81178 1.51878 8.45989V8.51651C1.51813 9.57311 1.8834 10.5973 2.55252 11.4151C3.22164 12.2328 4.15329 12.7936 5.18912 13.0021C4.5163 13.1862 3.81016 13.213 3.12531 13.0805C3.4176 13.9892 3.9863 14.7839 4.75202 15.3539C5.51774 15.9238 6.44229 16.2404 7.39664 16.2596C5.77644 17.5323 3.77503 18.2226 1.71475 18.2193C1.34937 18.2188 0.98436 18.1964 0.621658 18.1523C2.71468 19.495 5.14943 20.2082 7.63616 20.2069Z" fill="white"/>
</g>
<defs>
<clipPath id="clip0_4011_11174">
<rect width="22.2973" height="22.2973" fill="white" transform="translate(0.621643)"/>
</clipPath>
</defs>
</svg>
