<svg width="23" height="23" viewBox="0 0 23 23" fill="none" xmlns="http://www.w3.org/2000/svg">
<g clip-path="url(#clip0_4011_11179)">
<path d="M22.1833 6.68918C22.1833 6.68918 21.9656 5.15188 21.2949 4.47687C20.4457 3.58846 19.4963 3.58411 19.0608 3.53185C15.9427 3.30539 11.2611 3.30539 11.2611 3.30539H11.2524C11.2524 3.30539 6.57086 3.30539 3.45272 3.53185C3.01722 3.58411 2.06785 3.58846 1.21863 4.47687C0.547973 5.15188 0.334581 6.68918 0.334581 6.68918C0.334581 6.68918 0.108124 8.49648 0.108124 10.2994V11.9891C0.108124 13.7921 0.330226 15.5994 0.330226 15.5994C0.330226 15.5994 0.547973 17.1367 1.21428 17.8117C2.06349 18.7001 3.17836 18.6696 3.67482 18.7654C5.46035 18.9353 11.2568 18.9875 11.2568 18.9875C11.2568 18.9875 15.9427 18.9788 19.0608 18.7567C19.4963 18.7045 20.4457 18.7001 21.2949 17.8117C21.9656 17.1367 22.1833 15.5994 22.1833 15.5994C22.1833 15.5994 22.4054 13.7964 22.4054 11.9891V10.2994C22.4054 8.49648 22.1833 6.68918 22.1833 6.68918ZM8.95301 14.0403V7.77356L14.9759 10.9178L8.95301 14.0403Z" fill="white"/>
</g>
<defs>
<clipPath id="clip0_4011_11179">
<rect width="22.2973" height="22.2973" fill="white" transform="translate(0.108124)"/>
</clipPath>
</defs>
</svg>
