<svg width="23" height="23" viewBox="0 0 23 23" fill="none" xmlns="http://www.w3.org/2000/svg">
<g clip-path="url(#clip0_4011_11180)">
<path fill-rule="evenodd" clip-rule="evenodd" d="M11.5541 0C5.39816 0 0.405426 4.99088 0.405426 11.1486C0.405426 17.3055 5.39816 22.2973 11.5541 22.2973C17.7109 22.2973 22.7027 17.3055 22.7027 11.1486C22.7027 4.99088 17.7109 0 11.5541 0ZM18.0333 16.3114V16.0931L17.0188 15.0971C16.9296 15.0293 16.885 14.9169 16.9036 14.8063V7.49096C16.885 7.3804 16.9296 7.26799 17.0188 7.20017L18.0575 6.20422V5.98589H14.4629L11.9006 12.3778L8.98524 5.98589H5.21421V6.20422L6.42941 7.66748C6.54833 7.77432 6.60965 7.93226 6.59293 8.09206V13.841C6.62823 14.0482 6.5632 14.26 6.41733 14.4115L5.0507 16.0689V16.2872H8.92485V16.0689L7.55821 14.4115C7.41142 14.26 7.34174 14.0501 7.37054 13.841V8.86875L10.7709 16.2872H11.1657L14.0857 8.86875V14.7822C14.0857 14.9401 14.0857 14.9698 13.9826 15.073L12.9328 16.0931V16.3114H18.0333Z" fill="white"/>
</g>
<defs>
<clipPath id="clip0_4011_11180">
<rect width="22.2973" height="22.2973" fill="white" transform="translate(0.405426)"/>
</clipPath>
</defs>
</svg>
