<svg width="24" height="23" viewBox="0 0 24 23" fill="none" xmlns="http://www.w3.org/2000/svg">
<path fill-rule="evenodd" clip-rule="evenodd" d="M23.1081 11.1486C23.1081 17.3059 18.1167 22.2973 11.9595 22.2973C5.80224 22.2973 0.810822 17.3059 0.810822 11.1486C0.810822 4.99142 5.80224 0 11.9595 0C18.1167 0 23.1081 4.99142 23.1081 11.1486ZM17.762 9.51865C18.6617 9.51865 19.3919 10.2489 19.3919 11.1486C19.3919 11.8136 18.9877 12.3873 18.4531 12.6481C18.4791 12.8046 18.4922 12.961 18.4922 13.1306C18.4922 15.6341 15.5844 17.6552 11.9855 17.6552C8.38667 17.6552 5.4789 15.6341 5.4789 13.1306C5.4789 12.961 5.49194 12.7915 5.51801 12.6351C4.94428 12.3743 4.5531 11.8136 4.5531 11.1486C4.5531 10.2489 5.28331 9.51865 6.18302 9.51865C6.61332 9.51865 7.01754 9.7012 7.30441 9.97503C8.42579 9.15355 9.97747 8.64501 11.7117 8.59286L12.5332 4.70713C12.5593 4.62889 12.5984 4.5637 12.6636 4.52458C12.7288 4.48546 12.807 4.47242 12.8853 4.48546L15.5844 5.05919C15.7669 4.66801 16.1581 4.40722 16.6145 4.40722C17.2534 4.40722 17.775 4.9288 17.775 5.56773C17.775 6.20666 17.2534 6.72823 16.6145 6.72823C15.9886 6.72823 15.4801 6.23273 15.454 5.61988L13.0417 5.11135L12.2985 8.59286C13.9936 8.65805 15.5322 9.17963 16.6406 9.97503C16.9275 9.68816 17.3186 9.51865 17.762 9.51865ZM9.40374 11.1486C8.76481 11.1486 8.24324 11.6701 8.24324 12.3091C8.24324 12.948 8.76481 13.4696 9.40374 13.4696C10.0427 13.4696 10.5642 12.948 10.5642 12.3091C10.5642 11.6701 10.0427 11.1486 9.40374 11.1486ZM11.9725 16.2209C12.4158 16.2209 13.9284 16.1687 14.7238 15.3733C14.8412 15.256 14.8412 15.0734 14.7499 14.943C14.6325 14.8257 14.4369 14.8257 14.3196 14.943C13.811 15.4385 12.7549 15.6211 11.9855 15.6211C11.2162 15.6211 10.147 15.4385 9.65149 14.943C9.53414 14.8257 9.33854 14.8257 9.22119 14.943C9.10384 15.0604 9.10384 15.256 9.22119 15.3733C10.0036 16.1557 11.5292 16.2209 11.9725 16.2209ZM13.3547 12.3091C13.3547 12.948 13.8762 13.4696 14.5152 13.4696C15.1541 13.4696 15.6757 12.948 15.6757 12.3091C15.6757 11.6701 15.1541 11.1486 14.5152 11.1486C13.8762 11.1486 13.3547 11.6701 13.3547 12.3091Z" fill="white"/>
</svg>
