<svg width="44" height="45" viewBox="0 0 44 45" fill="none" xmlns="http://www.w3.org/2000/svg">
<path fill-rule="evenodd" clip-rule="evenodd" d="M2.4799 3.30839C4.06775 1.72055 6.22132 0.82849 8.4669 0.82849L44 0.828125V7.32475C44 8.93883 43.3588 10.4868 42.2174 11.6281C41.0761 12.7694 39.5282 13.4106 37.9141 13.4106H21.2077C18.9621 13.4106 16.8086 14.3027 15.2207 15.8905C13.6329 17.4784 12.7408 19.6319 12.7408 21.8775V24.0322C12.7408 26.2778 13.6329 28.4314 15.2207 30.0192C16.8086 31.607 18.9621 32.499 21.2077 32.499H37.9141C39.5282 32.499 41.0761 33.1403 42.2174 34.2816C43.3588 35.4229 44 36.9709 44 38.585V44.8285H8.4669C6.22132 44.8285 4.06775 43.9364 2.4799 42.3486C0.892056 40.7607 0 38.6071 0 36.3616V9.29539C0 7.04981 0.892056 4.89624 2.4799 3.30839ZM21.5736 16.9516H38.7082C41.6308 16.9516 43.9999 19.3208 43.9999 22.2434V23.6671C43.9999 26.5896 41.6308 28.9588 38.7082 28.9588H21.5736C18.651 28.9588 16.2818 26.5896 16.2818 23.6671V22.2434C16.2818 19.3208 18.651 16.9516 21.5736 16.9516Z" fill="url(#paint0_linear_437_3926)"/>
<defs>
<linearGradient id="paint0_linear_437_3926" x1="4.42245" y1="0.828125" x2="35.2874" y2="46.8668" gradientUnits="userSpaceOnUse">
<stop stop-color="#C549FF"/>
<stop offset="1" stop-color="#654BFF"/>
</linearGradient>
</defs>
</svg>
