<svg width="65" height="64" viewBox="0 0 65 64" fill="none" xmlns="http://www.w3.org/2000/svg">
<path fill-rule="evenodd" clip-rule="evenodd" d="M13.7044 13.205C15.244 11.6654 17.3322 10.8004 19.5095 10.8004L53.9634 10.8V17.0994C53.9634 18.6644 53.3417 20.1654 52.235 21.272C51.1284 22.3787 49.6274 23.0004 48.0624 23.0004H31.8634C29.686 23.0004 27.5979 23.8654 26.0582 25.405C24.5186 26.9446 23.6536 29.0328 23.6536 31.2101V33.2994C23.6536 35.4767 24.5186 37.565 26.0582 39.1046C27.5979 40.6441 29.686 41.5091 31.8634 41.5091H48.0624C49.6274 41.5091 51.1284 42.1308 52.235 43.2375C53.3417 44.3441 53.9634 45.8451 53.9634 47.4102V53.4641H19.5095C17.3322 53.4641 15.244 52.5991 13.7044 51.0595C12.1648 49.5198 11.2998 47.4317 11.2998 45.2543V19.0101C11.2998 16.8328 12.1648 14.7446 13.7044 13.205ZM32.2182 26.4339H48.8324C51.6662 26.4339 53.9634 28.7311 53.9634 31.5649V32.9453C53.9634 35.7791 51.6662 38.0764 48.8324 38.0764H32.2182C29.3844 38.0764 27.0871 35.7791 27.0871 32.9453V31.5649C27.0871 28.7311 29.3844 26.4339 32.2182 26.4339Z" fill="url(#paint0_linear_437_5030)"/>
<defs>
<linearGradient id="paint0_linear_437_5030" x1="15.5879" y1="10.8" x2="45.5154" y2="55.4405" gradientUnits="userSpaceOnUse">
<stop stop-color="#C549FF"/>
<stop offset="1" stop-color="#654BFF"/>
</linearGradient>
</defs>
</svg>
