<svg width="48" height="49" viewBox="0 0 48 49" fill="none" xmlns="http://www.w3.org/2000/svg">
<path opacity="0.2" d="M45.7095 40.535C50.1762 33.2792 47.9103 23.7793 40.6486 19.3163C38.8105 18.187 36.7564 17.4544 34.6173 17.168C34.7253 17.9238 34.776 18.685 34.7716 19.4485C34.4959 27.9767 27.4547 34.7236 18.916 34.641H17.3062C18.5654 42.3022 25.2152 47.9099 32.9853 47.8614H47.2311L45.7316 45.3165C44.8396 43.8489 44.8308 42.0102 45.7095 40.535Z" fill="#05C0A5"/>
<path d="M2.92144 31.8162C-2.77148 22.5651 0.109419 10.4477 9.3575 4.75153C18.6056 -0.944605 30.7191 1.93711 36.4135 11.1883C38.3729 14.3707 39.3843 18.0465 39.3309 21.784C38.9797 32.6607 30.0098 41.2654 19.1323 41.1601H0.983151L2.89341 37.9144C4.03112 36.0427 4.04104 33.6976 2.92144 31.8162Z" fill="#05C0A5"/>
<path fill-rule="evenodd" clip-rule="evenodd" d="M16.34 20.048C19.9037 19.9029 21.2936 18.9746 21.2936 17.5239C21.2936 16.2765 20.3324 15.5512 18.6468 15.5512C17.0218 15.5802 15.484 16.275 14.403 17.4659L11.8006 14.6663C13.5351 12.7023 16.0724 11.6012 18.7208 11.6637C22.802 11.6637 25.5671 13.7815 25.5671 17.4659C25.5671 21.0199 23.1273 22.4704 20.1108 22.9926L19.8002 24.6897H16.8428L16.1922 20.193L16.34 20.048ZM20.4948 26.8888H15.9109V31.3276H20.4948V26.8888Z" fill="white"/>
</svg>
