<svg width="145" height="37" viewBox="0 0 145 37" fill="none" xmlns="http://www.w3.org/2000/svg">
<path d="M67.7701 32.2682V13.646L60.5212 27.5099H57.5501L50.3005 13.646V32.2682H44.8369V4.1391H50.6999L59.0152 20.1423L67.4129 4.1391H73.2357V32.2682H67.7701Z" fill="#00537E"/>
<path fill-rule="evenodd" clip-rule="evenodd" d="M44.1887 3.49091H51.0937L59.0181 18.7418L67.0211 3.49091H73.884V32.9165H67.1219V16.285L60.9138 28.1582H57.1576L50.9489 16.2848V32.9165H44.1887V3.49091ZM45.4853 4.78745V31.62H49.6523V13.6461L50.8751 13.3457L57.9428 26.8617H60.1287L67.1957 13.3457L68.4185 13.6461V31.62H72.5875V4.78745H67.8049L59.0125 21.5429L50.3062 4.78745H45.4853Z" fill="#00537E"/>
<path d="M98.7612 27.4736V32.2708H79.2314V4.1391H98.4079V8.9363H84.6977V15.7107H96.5422V20.1468H84.6977V27.4736H98.7612Z" fill="#00537E"/>
<path fill-rule="evenodd" clip-rule="evenodd" d="M78.5833 3.49078H99.0563V9.58452H85.346V15.0624H97.1905V20.7951H85.346V26.8253H99.4096V32.919H78.5833V3.49078ZM79.8798 4.78732V31.6225H98.113V28.1218H84.0495V19.4985H95.894V16.3589H84.0495V8.28798H97.7597V4.78732H79.8798Z" fill="#00537E"/>
<path d="M102.74 4.21819H107.771L117.949 26.0059L125.914 4.1391H131.856L120.408 32.2682H115.814L102.74 4.21819Z" fill="#00537E"/>
<path fill-rule="evenodd" clip-rule="evenodd" d="M125.46 3.49078H132.82L120.844 32.9164H115.401L101.723 3.56987H108.184L117.875 24.3153L125.46 3.49078ZM126.368 4.78732L118.024 27.6964L107.359 4.86641H103.758L116.227 31.6199H119.972L130.892 4.78732H126.368Z" fill="#00537E"/>
<path d="M114.289 4.21819H119.323L129.501 26.0059L137.462 4.1391H143.404L131.957 32.2682H127.362L114.289 4.21819Z" fill="#00537E"/>
<path fill-rule="evenodd" clip-rule="evenodd" d="M137.008 3.49078H144.368L132.392 32.9164H126.948L113.271 3.56987H119.735L129.426 24.3151L137.008 3.49078ZM137.916 4.78732L129.575 27.6966L118.91 4.86641H115.306L127.774 31.6199H131.52L142.44 4.78732H137.916Z" fill="#00537E"/>
<path d="M18.5004 31.7858C25.8372 31.7858 31.7848 25.8382 31.7848 18.5014C31.7848 11.1647 25.8372 5.2171 18.5004 5.2171C11.1637 5.2171 5.21606 11.1647 5.21606 18.5014C5.21606 25.8382 11.1637 31.7858 18.5004 31.7858Z" fill="white"/>
<path d="M0 18.5003C0 28.7177 8.28294 37 18.5003 37C28.7177 37 37 28.7177 37 18.5003C37 8.28294 28.7177 0 18.5003 0C8.28294 0 0 8.28294 0 18.5003ZM18.5003 30.1258C12.2465 30.1258 6.88463 25.0556 6.88463 18.8018C6.88463 17.3334 7.16403 15.6382 7.67227 14.3507L12.664 16.4764C12.6477 16.5458 12.627 16.6365 12.6043 16.7403C12.4558 17.2271 12.3687 17.7306 12.345 18.2391C12.3345 18.3398 12.3308 18.4412 12.334 18.5425C12.334 18.5658 12.3372 18.5885 12.3385 18.6118C12.3613 20.47 13.2258 22.2176 14.689 23.3632C16.1522 24.5089 18.0562 24.9289 19.8656 24.5052L22.7024 29.3219C21.3669 29.8547 19.942 30.1275 18.5042 30.1258H18.5003ZM29.2195 23.1004L16.5523 17.7334L24.6757 17.6978C24.3853 14.7507 21.3566 12.3586 18.5003 12.3586C17.8524 12.3578 17.2089 12.4652 16.5964 12.6763L13.7848 7.89982C15.2639 7.2223 16.8721 6.87267 18.499 6.87489C24.7529 6.87489 30.0972 12.0384 30.0972 18.2922C30.0972 19.9777 29.8794 21.6632 29.2182 23.1004" fill="#1896A4"/>
</svg>
