<svg width="48" height="49" viewBox="0 0 48 49" fill="none" xmlns="http://www.w3.org/2000/svg">
<path d="M0.23077 24.4742C0.23077 37.5335 10.9762 48.1195 24.2312 48.1195C37.4862 48.1195 48.2308 37.5335 48.2308 24.4742C48.2308 11.4149 37.4862 0.828125 24.2312 0.828125C10.9762 0.828125 0.23077 11.4149 0.23077 24.4742ZM24.2312 39.3332C16.1181 39.3332 9.16218 32.8528 9.16218 24.8595C9.16218 22.9828 9.52465 20.816 10.184 19.1705L16.6597 21.8874C16.6387 21.976 16.6117 22.092 16.5823 22.2246C16.3897 22.8469 16.2767 23.4904 16.2459 24.1403C16.2323 24.2691 16.2275 24.3986 16.2316 24.5281C16.2316 24.5579 16.2358 24.5869 16.2375 24.6167C16.2671 26.9918 17.3886 29.2254 19.2868 30.6897C21.185 32.154 23.655 32.6909 26.0023 32.1494L29.6825 38.3057C27.9501 38.9867 26.1015 39.3354 24.2362 39.3332H24.2312ZM38.1371 30.3538L21.704 23.494L32.2425 23.4484C31.8658 19.6817 27.9366 16.6242 24.2312 16.6242C23.3907 16.6232 22.5559 16.7604 21.7612 17.0302L18.1138 10.9252C20.0326 10.0593 22.1189 9.61239 24.2295 9.61523C32.3426 9.61523 39.2758 16.2149 39.2758 24.2082C39.2758 26.3626 38.9932 28.5169 38.1354 30.3538" fill="#1896A4"/>
</svg>
