<svg width="56" height="56" viewBox="0 0 56 56" fill="none" xmlns="http://www.w3.org/2000/svg">
<circle cx="28" cy="28" r="28" fill="#F4F7FE"/>
<path d="M18.2878 40.9043C16.472 40.9043 15 39.4323 15 37.6165L15 17.6841C15 15.8683 16.472 14.3963 18.2878 14.3963L39.4071 14.3963C41.2229 14.3963 42.6949 15.8683 42.6949 17.6841L42.6949 37.6165C42.6949 39.4323 41.2229 40.9043 39.4071 40.9043L18.2878 40.9043Z" fill="#0747A6"/>
<rect x="21.3311" y="34.9688" width="9.89103" height="9.89104" rx="1.97266" transform="rotate(-90 21.3311 34.9688)" fill="white"/>
<rect x="35.0433" y="21.651" width="5.27152" height="5.27152" rx="1.64388" transform="rotate(90 35.0433 21.651)" stroke="white" stroke-width="1.31511"/>
<rect x="33.9893" y="24.2871" width="10.2867" height="9.89104" rx="1.97266" transform="rotate(-90 33.9893 24.2871)" fill="white"/>
</svg>
