<svg width="56" height="56" viewBox="0 0 56 56" fill="none" xmlns="http://www.w3.org/2000/svg">
<circle cx="28" cy="28" r="28" fill="#F4F7FE"/>
<g clip-path="url(#clip0_2342_13432)">
<path d="M40.8497 19.815L40.8655 19.7989L35.0036 13.8056L33.3333 15.5133L36.6582 18.9128C35.177 19.4928 34.1212 20.9428 34.1212 22.6667C34.1212 24.89 35.8861 26.6944 38.0606 26.6944C38.6279 26.6944 39.1479 26.5656 39.6364 26.3561V37.9722C39.6364 38.8583 38.9273 39.5833 38.0606 39.5833C37.1939 39.5833 36.4848 38.8583 36.4848 37.9722V30.7222C36.4848 28.95 35.0667 27.5 33.3333 27.5H31.7576V16.2222C31.7576 14.45 30.3394 13 28.6061 13H19.1515C17.4182 13 16 14.45 16 16.2222V42H31.7576V29.9167H34.1212V37.9722C34.1212 40.1956 35.8861 42 38.0606 42C40.2352 42 42 40.1956 42 37.9722V22.6667C42 21.555 41.5588 20.54 40.8497 19.815ZM28.6061 29.9167V38.7778H19.1515V27.5H28.6061V29.9167ZM28.6061 24.2778H19.1515V16.2222H28.6061V24.2778ZM38.0606 24.2778C37.1939 24.2778 36.4848 23.5528 36.4848 22.6667C36.4848 21.7806 37.1939 21.0556 38.0606 21.0556C38.9273 21.0556 39.6364 21.7806 39.6364 22.6667C39.6364 23.5528 38.9273 24.2778 38.0606 24.2778Z" fill="#0747A6"/>
</g>
<defs>
<clipPath id="clip0_2342_13432">
<rect width="30" height="30" fill="white" transform="translate(13 13)"/>
</clipPath>
</defs>
</svg>
