<svg width="56" height="56" viewBox="0 0 56 56" fill="none" xmlns="http://www.w3.org/2000/svg">
<circle cx="28" cy="28" r="28" fill="#F4F7FE"/>
<rect x="18.0566" y="22.2188" width="12.2873" height="5.19828" rx="1" transform="rotate(-27.4567 18.0566 22.2188)" fill="#0747A6"/>
<path d="M32.3465 24.1794L29.7056 19.0968L27.0646 14.0143C26.6789 13.2719 27.3209 12.4123 28.1422 12.5714L37.1905 14.3247C37.823 14.4473 38.1763 15.1271 37.913 15.7151L34.1466 24.127C33.8047 24.8905 32.7322 24.9218 32.3465 24.1794Z" fill="#0747A6"/>
<rect x="37.7725" y="32.8516" width="12.2873" height="5.19828" rx="1" transform="rotate(152.543 37.7725 32.8516)" fill="#0747A6"/>
<path d="M23.4816 30.8909L26.1226 35.9735L28.7635 41.0561C29.1492 41.7984 28.5072 42.658 27.6859 42.4989L18.6376 40.7456C18.0051 40.623 17.6519 39.9432 17.9151 39.3552L21.6816 30.9433C22.0234 30.1798 23.0959 30.1485 23.4816 30.8909Z" fill="#0747A6"/>
</svg>
