<?xml version="1.0" encoding="UTF-8"?>
<svg width="108px" height="123px" viewBox="0 0 108 123" version="1.1" xmlns="http://www.w3.org/2000/svg" xmlns:xlink="http://www.w3.org/1999/xlink">
    <!-- Generator: Sketch 52 (66869) - http://www.bohemiancoding.com/sketch -->
    <title>cubes-in-stack-with-shadow</title>
    <desc>Created with Sketch.</desc>
    <defs>
        <filter x="-12.6%" y="-21.9%" width="125.3%" height="143.8%" filterUnits="objectBoundingBox" id="filter-1">
            <feOffset dx="0" dy="9" in="SourceAlpha" result="shadowOffsetOuter1"></feOffset>
            <feGaussianBlur stdDeviation="4" in="shadowOffsetOuter1" result="shadowBlurOuter1"></feGaussianBlur>
            <feColorMatrix values="0 0 0 0 0.597496811   0 0 0 0 0.597496811   0 0 0 0 0.597496811  0 0 0 0.0387228261 0" type="matrix" in="shadowBlurOuter1" result="shadowMatrixOuter1"></feColorMatrix>
            <feMerge>
                <feMergeNode in="shadowMatrixOuter1"></feMergeNode>
                <feMergeNode in="SourceGraphic"></feMergeNode>
            </feMerge>
        </filter>
    </defs>
    <g id="desktop_new" stroke="none" stroke-width="1" fill="none" fill-rule="evenodd" opacity="0.200000003">
        <g id="Home-dropdown-menu-" transform="translate(-456.000000, -211.000000)" fill="#FFFFFF" fill-rule="nonzero" stroke="#FFFFFF" stroke-width="6">
            <g id="Group-4" filter="url(#filter-1)" transform="translate(291.000000, 164.000000)">
                <g id="cubes-in-stack-with-shadow">
                    <g transform="translate(176.000000, 50.000000)" id="Shape">
                        <path d="M4.11671747e-05,71.5880914 L0.174317012,108.720543 C0.175793926,109.198046 0.441638435,109.634536 0.864035821,109.86157 L30.7700662,125.390671 C30.9650188,125.494667 31.1776944,125.545933 31.3918469,125.545933 C31.3933238,125.545933 31.3933238,125.545933 31.3948008,125.545933 C31.4848925,125.645535 31.5853227,125.740742 31.7064296,125.812514 C31.9131975,125.935552 32.145073,125.997071 32.3784254,125.997071 C32.5940549,125.997071 32.8082074,125.945805 33.00316,125.841809 L62.5296235,109.961172 C62.7998987,109.816163 62.9948514,109.578876 63.1085738,109.309365 C63.2282038,109.536399 63.4083873,109.737067 63.6461704,109.864499 L93.5507239,125.3936 C93.7456765,125.497597 93.959829,125.548862 94.1739815,125.548862 C94.1754585,125.548862 94.1754585,125.548862 94.1769354,125.548862 C94.268504,125.648464 94.3674573,125.743672 94.4870873,125.815444 C94.6968091,125.938481 94.9286846,126 95.1605601,126 C95.3761895,126 95.5888651,125.948734 95.7838177,125.844738 L125.310281,109.959707 C125.734155,109.734138 126,109.291788 126,108.812821 L126,70.1775533 C126,70.1658355 125.994092,70.1541176 125.994092,70.1453292 C125.994092,70.1365408 125.997046,70.1262877 125.997046,70.1145698 C125.995569,70.0808809 125.982277,70.0427979 125.976369,70.009109 C125.966031,69.9358724 125.955693,69.8655652 125.936493,69.795258 C125.920247,69.7498512 125.902524,69.7044445 125.88037,69.6590378 C125.852309,69.597519 125.825724,69.5389297 125.788801,69.4832698 C125.76074,69.4393278 125.729725,69.3983153 125.697233,69.3602322 C125.655879,69.3104313 125.610095,69.2635598 125.561357,69.2181531 C125.524434,69.1844642 125.481603,69.1522401 125.438773,69.1214807 C125.409234,69.1039039 125.388558,69.0775387 125.356066,69.0584972 C125.326527,69.0423851 125.295512,69.0335967 125.264497,69.0218788 C125.236435,69.0072315 125.220189,68.9896547 125.192128,68.9794016 L94.7632702,54.3642938 C94.6421633,54.3144929 94.5121948,54.3086339 94.3837033,54.2954513 L94.3837033,15.9150475 C94.3837033,15.9047944 94.3807495,15.8930765 94.3807495,15.8828234 C94.3792726,15.8725702 94.3822264,15.8637818 94.3822264,15.8535287 C94.3807495,15.8169104 94.3645034,15.7817568 94.3600727,15.7466032 C94.3497343,15.6748313 94.3393959,15.6030593 94.320196,15.5342169 C94.3054269,15.4873454 94.2847501,15.4419387 94.2640733,15.3979967 C94.234535,15.3364779 94.2109044,15.2764238 94.1725046,15.2222287 C94.1429663,15.1782867 94.1119512,15.1387389 94.080936,15.0991911 C94.0395824,15.0493902 93.995275,15.001054 93.9465368,14.957112 C93.9096139,14.9234231 93.8653065,14.891199 93.8239529,14.8619043 C93.7929377,14.8413981 93.7722609,14.8150329 93.7412458,14.7959913 C93.7102306,14.7798793 93.6792154,14.7725556 93.6496771,14.7579083 C93.6216157,14.7447257 93.6038928,14.7271489 93.5787852,14.7183605 L63.1587888,0.103252702 C62.8043295,-0.0461500835 62.4026089,-0.0329674847 62.057011,0.139871032 L31.9826125,15.6880139 C31.5410152,15.9091886 31.2633554,16.3559322 31.2604016,16.8451531 C31.2604016,16.8539415 31.2633554,16.8612651 31.2633554,16.8685888 C31.2087096,17.0135974 31.1703098,17.1644649 31.1703098,17.3255856 L31.3445857,54.2851982 C31.1880328,54.3013103 31.030003,54.3291402 30.8852654,54.4009121 L0.810866919,69.949055 C0.370746566,70.1687649 0.0916098314,70.6169733 0.0886560035,71.1076589 C0.0886560035,71.1149826 0.0930867453,71.1208415 0.0930867453,71.1296299 C0.0369640156,71.2731738 -0.00143574676,71.4269707 4.11671747e-05,71.5880914 Z M90,16.3113794 L63.7715538,31 L36,17.1178192 L62.9430102,3 L90,16.3113794 Z M91,54.7213704 L65,69 L65,33.1634101 L91,18 L91,54.7213704 Z M97,87.1623635 L123,72 L123,108.27855 L97,123 L97,87.1623635 Z M67,71.1170813 L93.9437393,57 L121,70.3165377 L94.7723054,85 L67,71.1170813 Z M34,87.1613167 L60,72 L60,108.27961 L34,123 L34,87.1613167 Z M5,71.1170813 L31.9437393,57 L59,70.3165377 L32.770844,85 L5,71.1170813 Z"></path>
                    </g>
                </g>
            </g>
        </g>
    </g>
</svg>