<svg xmlns="http://www.w3.org/2000/svg" width="112" height="119" viewBox="0 0 112 119">
    <defs>
        <filter id="a" width="125.3%" height="143.8%" x="-12.6%" y="-21.9%" filterUnits="objectBoundingBox">
            <feOffset dy="9" in="SourceAlpha" result="shadowOffsetOuter1"/>
            <feGaussianBlur in="shadowOffsetOuter1" result="shadowBlurOuter1" stdDeviation="4"/>
            <feColorMatrix in="shadowBlurOuter1" result="shadowMatrixOuter1" values="0 0 0 0 0.597496811 0 0 0 0 0.597496811 0 0 0 0 0.597496811 0 0 0 0.0387228261 0"/>
            <feMerge>
                <feMergeNode in="shadowMatrixOuter1"/>
                <feMergeNode in="SourceGraphic"/>
            </feMerge>
        </filter>
    </defs>
    <g fill="#FFF" fill-rule="evenodd" filter="url(#a)" opacity=".3" transform="translate(-161 -51)">
        <path d="M234.1 109.343a12.503 12.503 0 0 1 3.342-.459c6.926 0 12.558 5.633 12.558 12.558 0 6.926-5.632 12.558-12.558 12.558-6.925 0-12.558-5.632-12.558-12.558 0-1.159.162-2.29.459-3.341l-34.979-34.979-5.66.755L167 66.172l13.393-1.779L182.172 51l17.705 17.705-.755 5.659 34.979 34.979z"/>
        <path d="M236.154 96.315l-10.379-10.379c12.73-4.324 27.407-1.405 37.542 8.757 14.244 14.244 14.244 37.38 0 51.624s-37.38 14.244-51.624 0c-10.162-10.162-13.081-24.812-8.757-37.569l10.38 10.379c-.38 6.649 1.972 13.433 7.053 18.514 9.46 9.46 24.812 9.46 34.272 0 9.46-9.46 9.46-24.812 0-34.272a24.114 24.114 0 0 0-18.487-7.054z"/>
        <path d="M194.857 100.514c-8.437 17.73-5.303 39.558 9.373 54.235 18.641 18.64 48.852 18.64 67.492 0 18.64-18.64 18.64-48.851 0-67.492-14.677-14.677-36.504-17.783-54.234-9.374l-9.83-9.829c23.301-13.364 53.565-10.097 73.465 9.803 23.836 23.836 23.836 62.456 0 86.266-23.837 23.836-62.457 23.836-86.266 0-19.9-19.9-23.167-50.164-9.803-73.464l9.803 9.855z"/>
    </g>
</svg>
